# xmcd
#
# Track frame offsets: 
#        150
#        22229
#        35482
#        51706
#        78135
#        96411
#        118493
#        132023
#        155218
#        168336
#        186189
#        200704
#
# Disc length: 2974 seconds
#
# Revision: 0
# Processed by: cddbd v1.5.2PL0 Copyright (c) Steve Scherf et al.
# Submitted via: ExactAudioCopy v1.3
#
DISCID=b40b9c0c
DTITLE=JB and The Delta Jukes - Jug Rock
DYEAR=2007
DGENRE=Blues
TTITLE0=Get Back Home
TTITLE1=Viola Lee Blues
TTITLE2=Greenback Dollar Bill
TTITLE3=Illinois Blues
TTITLE4=Well Fed Belly Blues
TTITLE5=Howlin' Blues #2
TTITLE6=Custard Pie
TTITLE7=Devil Got My Woman
TTITLE8=Twist It, Babe
TTITLE9=Real Good Time
TTITLE10=Ooze It To Me, Mama
TTITLE11=Miss Maybelle
EXTD=
EXTT0=
EXTT1=
EXTT2=
EXTT3=
EXTT4=
EXTT5=
EXTT6=
EXTT7=
EXTT8=
EXTT9=
EXTT10=
EXTT11=
PLAYORDER=
